<svg xmlns="http://www.w3.org/2000/svg" width="40.934" height="40.934" viewBox="0 0 40.934 40.934"><defs><style>.a{fill:#195497;}</style></defs><path class="a" d="M45.35,31.233a4.269,4.269,0,0,0-4.264-4.264h-5.97v-3.32a2.63,2.63,0,0,0-2.132-2.616A2.558,2.558,0,0,0,30,23.558V35.5a4.22,4.22,0,0,0,.875,2.558h-.022a.853.853,0,0,0-.853.853v4.264a.853.853,0,0,0,.853.853H44.5a.853.853,0,0,0,.853-.853V38.908a.853.853,0,0,0-.853-.853h-.022A4.22,4.22,0,0,0,45.35,35.5ZM43.645,42.32H31.706V39.761H43.645Zm-9.381-4.264A2.558,2.558,0,0,1,31.706,35.5V23.558a.853.853,0,0,1,.853-.853.889.889,0,0,1,.149.013.924.924,0,0,1,.7.931v4.173a.853.853,0,0,0,.853.853h6.822a2.558,2.558,0,0,1,2.558,2.558V35.5a2.558,2.558,0,0,1-2.558,2.558Z" transform="translate(-4.416 -3.091)"/><path class="a" d="M15.953,26.687a3.27,3.27,0,0,0-4.617,0L7.675,30.348V2.558a.853.853,0,0,1,.853-.853H34.112a.853.853,0,0,1,.853.853V23.025H36.67V2.558A2.558,2.558,0,0,0,34.112,0H8.528A2.558,2.558,0,0,0,5.97,2.558V17.977a5.97,5.97,0,0,0-5.117,5.9V35.817A.853.853,0,0,0,0,36.67v3.411a.853.853,0,0,0,.853.853H11.939a.853.853,0,0,0,.853-.853V36.67a.853.853,0,0,0-.853-.853h-.5l3.411-3.411h9.028V30.7H16.419a3.265,3.265,0,0,0-.466-4.014ZM11.086,39.229H1.706V37.523h9.381ZM2.558,35.817V23.878A4.271,4.271,0,0,1,5.97,19.7V32.406a.853.853,0,0,0,1.456.6l5.117-5.117A1.56,1.56,0,1,1,14.748,30.1l-5.72,5.719Z"/><path class="a" d="M17.822,8.264V6.558A2.558,2.558,0,0,0,15.264,4H13.558A2.558,2.558,0,0,0,11,6.558V8.264a2.558,2.558,0,0,0,2.558,2.558h1.706A2.558,2.558,0,0,0,17.822,8.264Zm-1.706,0a.853.853,0,0,1-.853.853H13.558a.853.853,0,0,1-.853-.853V6.558a.853.853,0,0,1,.853-.853h1.706a.853.853,0,0,1,.853.853Z" transform="translate(-1.619 -0.589)"/><path class="a" d="M25.264,4H23.558A2.558,2.558,0,0,0,21,6.558V8.264a2.558,2.558,0,0,0,2.558,2.558h1.706a2.558,2.558,0,0,0,2.558-2.558V6.558A2.558,2.558,0,0,0,25.264,4Zm.853,4.264a.853.853,0,0,1-.853.853H23.558a.853.853,0,0,1-.853-.853V6.558a.853.853,0,0,1,.853-.853h1.706a.853.853,0,0,1,.853.853Z" transform="translate(-3.091 -0.589)"/><path class="a" d="M37.822,6.558A2.558,2.558,0,0,0,35.264,4H33.558A2.558,2.558,0,0,0,31,6.558V8.264a2.558,2.558,0,0,0,2.558,2.558h1.706a2.558,2.558,0,0,0,2.558-2.558ZM36.117,8.264a.853.853,0,0,1-.853.853H33.558a.853.853,0,0,1-.853-.853V6.558a.853.853,0,0,1,.853-.853h1.706a.853.853,0,0,1,.853.853Z" transform="translate(-4.563 -0.589)"/><path class="a" d="M15.411,25.939V23.224a2.543,2.543,0,0,0,0-4.8V14H13.705v4.421a2.543,2.543,0,0,0,0,4.8v2.715Zm-.853-5.97a.853.853,0,1,1-.853.853A.853.853,0,0,1,14.558,19.97Z" transform="translate(-1.766 -2.061)"/><path class="a" d="M25.411,23.538V14H23.706v9.538a2.558,2.558,0,1,0,1.706,0Zm-.853,3.254a.853.853,0,1,1,.853-.853A.853.853,0,0,1,24.558,26.792Z" transform="translate(-3.238 -2.061)"/><rect class="a" width="6.822" height="1.706" transform="translate(26.437 11.939)"/><rect class="a" width="6.822" height="1.706" transform="translate(26.437 15.35)"/></svg>