<svg xmlns="http://www.w3.org/2000/svg" xmlns:xlink="http://www.w3.org/1999/xlink" width="54.271" height="54.271" viewBox="0 0 54.271 54.271"><defs><style>.a{fill:#9b9b9b;}.b{fill:#fff;}.c{filter:url(#a);}</style><filter id="a" x="0" y="0" width="54.271" height="54.271" filterUnits="userSpaceOnUse"><feOffset dy="3" input="SourceAlpha"/><feGaussianBlur stdDeviation="3" result="b"/><feFlood flood-opacity="0.161"/><feComposite operator="in" in2="b"/><feComposite in="SourceGraphic"/></filter></defs><g transform="translate(9 6)"><g class="c" transform="matrix(1, 0, 0, 1, -9, -6)"><circle class="a" cx="18.135" cy="18.135" r="18.135" transform="translate(9 6)"/></g><path class="b" d="M5.754,11.16A5.807,5.807,0,0,1,1.685,9.526a5.462,5.462,0,0,1,0-7.892,5.883,5.883,0,0,1,7.951-.172l-1.7,1.61A3.452,3.452,0,0,0,5.754,2.3,3.341,3.341,0,0,0,2.367,5.58,3.341,3.341,0,0,0,5.754,8.864,3.4,3.4,0,0,0,8.92,6.745H5.681V4.415h5.7a5.464,5.464,0,0,1-1.56,5.111A5.807,5.807,0,0,1,5.754,11.16ZM16.133,7.946H14.676V6h-2V4.591h2V2.648h1.457V4.591h2V6h-2V7.946Z" transform="translate(9.3 12.555)"/></g></svg>