<svg xmlns="http://www.w3.org/2000/svg" xmlns:xlink="http://www.w3.org/1999/xlink" width="60.271" height="60.271" viewBox="0 0 60.271 60.271"><defs><style>.a{fill:#9b9b9b;}.b{fill:#fff;}.c{filter:url(#a);}</style><filter id="a" x="0" y="0" width="60.271" height="60.271" filterUnits="userSpaceOnUse"><feOffset dy="4" input="SourceAlpha"/><feGaussianBlur stdDeviation="4" result="b"/><feFlood flood-opacity="0.102"/><feComposite operator="in" in2="b"/><feComposite in="SourceGraphic"/></filter></defs><g transform="translate(12 8)"><g class="c" transform="matrix(1, 0, 0, 1, -12, -8)"><circle class="a" cx="18.135" cy="18.135" r="18.135" transform="translate(12 8)"/></g><path class="b" d="M11.1,15.81H4.71A4.715,4.715,0,0,1,0,11.1V4.71A4.715,4.715,0,0,1,4.71,0H11.1a4.715,4.715,0,0,1,4.71,4.71V11.1A4.715,4.715,0,0,1,11.1,15.81ZM4.71,1.59A3.123,3.123,0,0,0,1.59,4.71V11.1A3.123,3.123,0,0,0,4.71,14.22H11.1A3.123,3.123,0,0,0,14.22,11.1V4.71A3.123,3.123,0,0,0,11.1,1.59Zm3.2,10.4a4.089,4.089,0,1,1,4.089-4.089A4.094,4.094,0,0,1,7.905,11.994Zm0-6.587a2.5,2.5,0,1,0,2.5,2.5A2.5,2.5,0,0,0,7.905,5.407Zm4.1-.58a.98.98,0,1,1,.98-.98A.981.981,0,0,1,12,4.827Z" transform="translate(10.23 10.23)"/></g></svg>