<svg xmlns="http://www.w3.org/2000/svg" xmlns:xlink="http://www.w3.org/1999/xlink" width="54.271" height="54.271" viewBox="0 0 54.271 54.271"><defs><style>.a{fill:#9b9b9b;}.b{fill:#fff;}.c{filter:url(#a);}</style><filter id="a" x="0" y="0" width="54.271" height="54.271" filterUnits="userSpaceOnUse"><feOffset dy="3" input="SourceAlpha"/><feGaussianBlur stdDeviation="3" result="b"/><feFlood flood-opacity="0.161"/><feComposite operator="in" in2="b"/><feComposite in="SourceGraphic"/></filter></defs><g transform="translate(9 6)"><g class="c" transform="matrix(1, 0, 0, 1, -9, -6)"><ellipse class="a" cx="18.135" cy="18.135" rx="18.135" ry="18.135" transform="translate(9 6)"/></g><path class="b" d="M10.325,13.02V8.792c0-1.01-.015-2.308-1.4-2.308-1.405,0-1.616,1.1-1.616,2.232v4.3h-2.7v-8.7h2.58V5.515h.035a2.835,2.835,0,0,1,2.555-1.4c2.731,0,3.238,1.8,3.238,4.142V13.02Zm-7.414,0H.211v-8.7h2.7v8.7h0Zm1.7-8.7h.005ZM0,1.569A1.566,1.566,0,1,1,1.566,3.137,1.569,1.569,0,0,1,0,1.569Z" transform="translate(11.625 11.16)"/></g></svg>