<svg xmlns="http://www.w3.org/2000/svg" width="35.274" height="43.862" viewBox="0 0 35.274 43.862"><defs><style>.a{fill:#fff;fill-rule:evenodd;}</style></defs><g transform="translate(0.142)"><g transform="translate(-0.142)"><path class="a" d="M66.878,74.92A7.96,7.96,0,1,0,59,66.878,8.055,8.055,0,0,0,66.878,74.92Zm0-3.118a4.906,4.906,0,0,1-4.76-4.924,4.763,4.763,0,0,1,4.76-4.76,4.906,4.906,0,0,1,4.924,4.76A5.048,5.048,0,0,1,66.878,71.8Z" transform="translate(-49.293 -49.317)"/><path class="a" d="M18.263,43.493C21.874,39.226,32.378,28.558,34.019,23.8A17.661,17.661,0,0,0,17.606,0C5.3,0-3.4,12.309,1.03,23.8,3,29.05,12.683,38.9,16.786,43.493A.92.92,0,0,0,18.263,43.493ZM3.984,22.649C.373,13.294,7.595,3.118,17.606,3.118c9.847,0,16.9,10.176,13.458,19.531-1.477,4.267-10.176,13.13-13.622,16.9C13.667,35.451,5.954,27.573,3.984,22.649Z" transform="translate(0.142)"/></g></g></svg>