<svg xmlns="http://www.w3.org/2000/svg" width="21.36" height="26.561" viewBox="0 0 21.36 26.561"><defs><style>.a{fill:#195497;fill-rule:evenodd;}</style></defs><g transform="translate(0.142)"><g transform="translate(-0.142)"><path class="a" d="M63.77,68.64A4.82,4.82,0,1,0,59,63.77,4.878,4.878,0,0,0,63.77,68.64Zm0-1.888a2.971,2.971,0,0,1-2.882-2.982,2.884,2.884,0,0,1,2.882-2.882,2.971,2.971,0,0,1,2.982,2.882A3.057,3.057,0,0,1,63.77,66.752Z" transform="translate(-53.122 -53.136)"/><path class="a" d="M11,26.337c2.186-2.584,8.547-9.044,9.541-11.926a10.667,10.667,0,1,0-19.976,0c1.193,3.18,7.056,9.143,9.541,11.926A.557.557,0,0,0,11,26.337ZM2.356,13.715A8.8,8.8,0,0,1,10.605,1.888a8.831,8.831,0,0,1,8.15,11.827c-.894,2.584-6.162,7.951-8.249,10.237C8.22,21.467,3.549,16.7,2.356,13.715Z" transform="translate(0.142)"/></g></g></svg>