<svg xmlns="http://www.w3.org/2000/svg" width="40.732" height="35.679" viewBox="0 0 40.732 35.679"><defs><style>.a{fill:#195497;}</style></defs><g transform="translate(-9 -42)"><g transform="translate(9 42)"><path class="a" d="M47.82,42H10.912A1.915,1.915,0,0,0,9,43.912V68.646a1.915,1.915,0,0,0,1.912,1.912h13.63v5.589H21.557a.766.766,0,0,0,0,1.531H37.176a.766.766,0,0,0,0-1.531H34.19V70.559H47.82a1.915,1.915,0,0,0,1.912-1.912V43.912A1.915,1.915,0,0,0,47.82,42ZM26.074,76.148V70.635h6.585v5.513ZM10.912,43.531H47.82a.381.381,0,0,1,.381.381V62.06H10.531V43.912A.381.381,0,0,1,10.912,43.531Zm36.908,25.5H10.912a.381.381,0,0,1-.381-.381V63.591H48.2v5.055A.381.381,0,0,1,47.82,69.027Z" transform="translate(-9 -42)"/><path class="a" d="M252.117,335.646a1.863,1.863,0,1,0,1.863,1.863A1.865,1.865,0,0,0,252.117,335.646Zm0,2.195a.332.332,0,1,1,.332-.332A.332.332,0,0,1,252.117,337.841Z" transform="translate(-231.782 -313.163)"/><path class="a" d="M146.351,118.571a.766.766,0,0,0,1.161-1l-4.2-4.88,4.2-4.864a.766.766,0,1,0-1.16-1l-4.626,5.364a.766.766,0,0,0,0,1Z" transform="translate(-131.392 -101.62)"/><path class="a" d="M329.806,118.65a.766.766,0,0,0,1.08-.08l4.626-5.364a.766.766,0,0,0,0-1l-4.626-5.379a.766.766,0,1,0-1.161,1l4.2,4.879-4.2,4.864A.766.766,0,0,0,329.806,118.65Z" transform="translate(-304.999 -101.619)"/><path class="a" d="M239.4,106.735a.765.765,0,0,0,.953-.514L244.217,93.3a.766.766,0,1,0-1.467-.439l-3.867,12.925A.766.766,0,0,0,239.4,106.735Z" transform="translate(-221.252 -88.459)"/></g></g></svg>