<svg xmlns="http://www.w3.org/2000/svg" width="40.098" height="40.098" viewBox="0 0 40.098 40.098"><defs><style>.a{fill:#195497;}</style></defs><g transform="translate(-2 -2)"><g transform="translate(2 2)"><path class="a" d="M41.43,26.059h-3.9l-3.614-1.2-1.174-2.935V19.71a3,3,0,0,0-2.678-2.974c0-.092,0-.183,0-.275V6.678a.668.668,0,0,0-.477-.64L16.226,2.028a.668.668,0,0,0-.384,0L2.477,6.038A.668.668,0,0,0,2,6.678v9.783c0,.31.021.616.032.924h0c.017.451.042.9.082,1.345.007.076.016.148.023.223a24.685,24.685,0,0,0,13.6,19.736.668.668,0,0,0,.6,0,24.978,24.978,0,0,0,2.888-1.7,2.7,2.7,0,0,0,.78.719A2.673,2.673,0,0,0,22.049,42.1H33.41a.672.672,0,0,0,.371-.112l3.839-2.561H41.43a.668.668,0,0,0,.668-.668V26.727A.668.668,0,0,0,41.43,26.059ZM26.966,22.776l.779,1.947H23.862A17.327,17.327,0,0,0,26.054,16.4l2.678-.8v.865c0,.143,0,.285-.007.428a3,3,0,0,0-2,2.82v1.824a3.336,3.336,0,0,0,.239,1.242ZM17.371,27.4a2.66,2.66,0,0,0,.735,1.833c-.248.18-.491.368-.747.535l-1.325.847-1.322-.849A15.978,15.978,0,0,1,8.3,21.725L24.7,16.8a15.988,15.988,0,0,1-2.4,7.917h-2.26A2.673,2.673,0,0,0,17.371,27.4ZM3.7,20.537c-.005-.033-.011-.067-.017-.1l2.656-.795c.079.4.174.8.281,1.194l-2.694.809C3.838,21.262,3.765,20.9,3.7,20.537Zm-.308-2.685,2.643-.793c.019.419.049.835.1,1.248L3.495,19.1c-.007-.06-.012-.12-.019-.18C3.442,18.574,3.411,18.224,3.391,17.852Zm21.331-7.8L7.346,15.27V10.491L16.057,7.38l8.665,2.475Zm0,1.4V12.73L7.437,17.916q-.063-.623-.079-1.254Zm4.01,1.47V14.2l-2.673.8V13.725Zm0-1.4-2.673.8V11.051l2.673-.8ZM7.624,19.255,18.5,15.993l6.223-1.867V15.4L7.9,20.451C7.794,20.056,7.7,19.659,7.624,19.255ZM3.337,7.175l12.7-3.809,12.7,3.809V8.854l-2.673.8v-.3a.668.668,0,0,0-.485-.642L16.218,6.036a.661.661,0,0,0-.408.013L6.454,9.39a.668.668,0,0,0-.444.63v5.651l-2.673.8Zm12.7,30.163a23.365,23.365,0,0,1-11.8-14.394l2.785-.835a17.3,17.3,0,0,0,6.968,8.776l1.683,1.082a.668.668,0,0,0,.723,0l1.683-1.082.017-.011A2.642,2.642,0,0,0,19.335,33.7a2.665,2.665,0,0,0-.628,1.72,2.544,2.544,0,0,0,.019.278,23.54,23.54,0,0,1-2.692,1.645ZM33.21,40.762H22.049a1.332,1.332,0,0,1-.111-2.659.682.682,0,0,0,.612-.708.668.668,0,0,0-.668-.642h-.5a1.337,1.337,0,1,1,0-2.673.668.668,0,0,0,0-1.337h-.668a1.337,1.337,0,1,1,0-2.673.668.668,0,0,0,0-1.337h-.668a1.337,1.337,0,1,1,0-2.673h8.688a.668.668,0,0,0,.621-.917l-1.145-2.863a1.989,1.989,0,0,1-.144-.745V19.71a1.671,1.671,0,0,1,3.342,0v2.339a.676.676,0,0,0,.047.249l1.337,3.342a.672.672,0,0,0,.41.386l3.553,1.184V38.4Zm7.552-2.673H38.088V27.4h2.673Z" transform="translate(-2 -2)"/><path class="a" d="M54.167,14.84l-.914.976a9.968,9.968,0,0,1,.859.912l1.028-.855A11.357,11.357,0,0,0,54.167,14.84Z" transform="translate(-19 -6.259)"/><path class="a" d="M59.325,26.863q0-.393-.027-.779l-1.333.09q.023.341.023.688c0,.189-.005.378-.016.564l1.337.077Q59.325,27.185,59.325,26.863Z" transform="translate(-20.563 -9.989)"/><path class="a" d="M52.07,13.111a11.414,11.414,0,0,0-1.2-.762l-.645,1.17a10.043,10.043,0,0,1,1.057.668Z" transform="translate(-17.997 -5.433)"/><path class="a" d="M58.922,30.2l-1.315-.239a9.854,9.854,0,0,1-.3,1.214l1.274.4A11.227,11.227,0,0,0,58.922,30.2Z" transform="translate(-20.345 -11.273)"/><path class="a" d="M48.434,11.224a11.253,11.253,0,0,0-1.351-.44l-.334,1.295a10.063,10.063,0,0,1,1.191.388Z" transform="translate(-16.843 -4.914)"/><path class="a" d="M56.125,34.185l1.17.648c.134-.245.267-.5.382-.754l-1.214-.559Q56.309,33.86,56.125,34.185Z" transform="translate(-19.953 -12.455)"/><path class="a" d="M55.645,18.818a10.108,10.108,0,0,1,.607,1.093l1.207-.573a11.3,11.3,0,0,0-.688-1.24Z" transform="translate(-19.794 -7.34)"/><path class="a" d="M57.25,22.341a10.029,10.029,0,0,1,.315,1.21l1.312-.255a11.213,11.213,0,0,0-.358-1.374Z" transform="translate(-20.326 -8.608)"/><path class="a" d="M46.867,20.409A4.246,4.246,0,0,1,49.55,24.37h1.337a5.576,5.576,0,0,0-3.523-5.2l-.239-.1-.5,1.24Z" transform="translate(-16.803 -7.663)"/></g></g></svg>