<svg xmlns="http://www.w3.org/2000/svg" xmlns:xlink="http://www.w3.org/1999/xlink" width="54.271" height="54.271" viewBox="0 0 54.271 54.271"><defs><style>.a{fill:#9b9b9b;}.b{fill:#fff;}.c{filter:url(#a);}</style><filter id="a" x="0" y="0" width="54.271" height="54.271" filterUnits="userSpaceOnUse"><feOffset dy="3" input="SourceAlpha"/><feGaussianBlur stdDeviation="3" result="b"/><feFlood flood-opacity="0.161"/><feComposite operator="in" in2="b"/><feComposite in="SourceGraphic"/></filter></defs><g transform="translate(9 6)"><g class="c" transform="matrix(1, 0, 0, 1, -9, -6)"><circle class="a" cx="18.135" cy="18.135" r="18.135" transform="translate(9 6)"/></g><path class="b" d="M14.88,1.431a6.124,6.124,0,0,1-1.753.481A3.062,3.062,0,0,0,14.469.224a6.1,6.1,0,0,1-1.939.74A3.054,3.054,0,0,0,7.248,3.052a3.087,3.087,0,0,0,.08.7A8.666,8.666,0,0,1,1.036.559a3.055,3.055,0,0,0,.945,4.075A3.027,3.027,0,0,1,.6,4.252v.039A3.053,3.053,0,0,0,3.047,7.283a3.048,3.048,0,0,1-.8.107,3,3,0,0,1-.574-.055,3.058,3.058,0,0,0,2.852,2.12A6.133,6.133,0,0,1,.728,10.761,6.153,6.153,0,0,1,0,10.719,8.639,8.639,0,0,0,4.68,12.09a8.626,8.626,0,0,0,8.686-8.684c0-.133,0-.263-.009-.395a6.2,6.2,0,0,0,1.523-1.58Z" transform="translate(10.695 12.09)"/></g></svg>