<svg xmlns="http://www.w3.org/2000/svg" xmlns:xlink="http://www.w3.org/1999/xlink" width="54.271" height="54.271" viewBox="0 0 54.271 54.271"><defs><style>.a{fill:#9b9b9b;}.b{fill:#fff;}.c{filter:url(#a);}</style><filter id="a" x="0" y="0" width="54.271" height="54.271" filterUnits="userSpaceOnUse"><feOffset dy="3" input="SourceAlpha"/><feGaussianBlur stdDeviation="3" result="b"/><feFlood flood-opacity="0.161"/><feComposite operator="in" in2="b"/><feComposite in="SourceGraphic"/></filter></defs><g transform="translate(9 6)"><g class="c" transform="matrix(1, 0, 0, 1, -9, -6)"><circle class="a" cx="18.135" cy="18.135" r="18.135" transform="translate(9 6)"/></g><path class="b" d="M8.37,13.02h0c-.044,0-4.374-.031-5.686-.177-.07-.017-.156-.029-.256-.043a2.347,2.347,0,0,1-1.591-.756,4.452,4.452,0,0,1-.664-1.835A29.64,29.64,0,0,1,0,7.22V5.829c0-1.489.172-3,.173-3.018A4.048,4.048,0,0,1,.837.976,2.28,2.28,0,0,1,2.461.212h0l.047,0C4.821.032,8.335,0,8.37,0s3.549.032,5.859.207l.079.007A2.131,2.131,0,0,1,15.9.976a4.452,4.452,0,0,1,.664,1.835c0,.015.173,1.528.173,3.018V7.22c0,1.46-.172,2.973-.173,2.989a4.453,4.453,0,0,1-.664,1.835,2.28,2.28,0,0,1-1.624.765h0l-.047,0C11.918,13.018,8.405,13.02,8.37,13.02ZM6.35,3.521V9.943l5.484-3.137Z" transform="translate(9.765 11.625)"/></g></svg>